<svg xmlns="http://www.w3.org/2000/svg" width="105.666" height="91.377" viewBox="0 0 105.666 91.377" alt="BIBLIGHT">
  <g id="Illustration_1" data-name="Illustration 1" transform="translate(52.833 45.688)">
    <g id="Groupe_48" data-name="Groupe 48" transform="translate(-52.833 -45.688)">
      <path id="Tracé_723" data-name="Tracé 723" d="M99.593,28.382a20.277,20.277,0,0,0-11.471,3.535V6.049H79.238V47.772q-.025.493-.025.99a20.38,20.38,0,1,0,20.38-20.381Zm0,31.461a11.081,11.081,0,1,1,11.081-11.08A11.079,11.079,0,0,1,99.593,59.842Z" transform="translate(-14.306 -1.092)" fill="#00233f"/>
      <rect id="Rectangle_59" data-name="Rectangle 59" width="8.881" height="40.457" transform="translate(51.458 27.494)" fill="#00233f"/>
      <path id="Tracé_724" data-name="Tracé 724" d="M71.708,20.086a4.432,4.432,0,1,1-4.43-4.43A4.43,4.43,0,0,1,71.708,20.086Z" transform="translate(-11.35 -2.828)" fill="#00233f"/>
      <path id="Tracé_725" data-name="Tracé 725" d="M92.2,102.572H90.514v.048c-.014.327-.209,3.2-2.775,3.2-2.3,0-3.46-2.054-3.465-6.113s1.168-6.113,3.465-6.113c2.611,0,2.771,3.067,2.775,3.2v.051H92.2a.578.578,0,0,0,.415-.177.53.53,0,0,0,.152-.39A4.751,4.751,0,0,0,87.713,91.5c-3.725,0-5.694,2.831-5.694,8.19s1.969,8.208,5.694,8.208a4.722,4.722,0,0,0,5.056-4.738.554.554,0,0,0-.151-.413A.572.572,0,0,0,92.2,102.572Z" transform="translate(-14.813 -16.526)" fill="#00233f"/>
      <path id="Tracé_726" data-name="Tracé 726" d="M123.049,98.727v0l-1.451-.635c-1.4-.614-1.894-1.21-1.894-2.282a2.318,2.318,0,0,1,2.545-2.337,3.166,3.166,0,0,1,2.537,1.1l.05.049.775-.709a.692.692,0,0,0,.132-1.032,4.358,4.358,0,0,0-3.42-1.382c-2.795,0-4.825,1.823-4.825,4.335,0,2.47,1.558,3.5,3.238,4.25l1.486.664c1.49.667,2.2,1.24,2.2,2.672a2.557,2.557,0,0,1-2.811,2.475,3.817,3.817,0,0,1-3.125-1.582l-.05-.057-.807.709c-.415.365-.419.681-.014,1.2a4.8,4.8,0,0,0,3.914,1.731c2.534,0,5.1-1.557,5.1-4.533C126.627,100.8,125.2,99.651,123.049,98.727Z" transform="translate(-21.187 -16.526)" fill="#00233f"/>
      <path id="Tracé_727" data-name="Tracé 727" d="M106.078,96.2a4.66,4.66,0,0,0-4.582-4.674,4.571,4.571,0,0,0-3.093,1.2v-.873H96.88a.586.586,0,0,0-.636.646v14.77a.582.582,0,0,0,.628.638H98.4V96.289a2.763,2.763,0,1,1,5.526,0v11.618h1.515a.573.573,0,0,0,.638-.633Z" transform="translate(-17.382 -16.53)" fill="#00233f"/>
      <path id="Tracé_728" data-name="Tracé 728" d="M116.333,92.621a.564.564,0,0,0,.129-.358.579.579,0,0,0-.392-.546,4.416,4.416,0,0,0-1.4-.229,4.555,4.555,0,0,0-3.09,1.2v-.869h-1.526a.584.584,0,0,0-.635.644v14.77a.584.584,0,0,0,.628.638h1.524V96.254a2.761,2.761,0,0,1,3.885-2.525l.883-1.105Z" transform="translate(-19.762 -16.523)" fill="#00233f"/>
      <path id="Tracé_729" data-name="Tracé 729" d="M25.632,40.523l.578,5.216-5.216-.576Z" transform="translate(-3.792 -7.319)" fill="#030201"/>
      <g id="Groupe_44" data-name="Groupe 44" transform="translate(2.893 5.037)">
        <path id="Tracé_730" data-name="Tracé 730" d="M34.078,39.2,33.5,33.985l5.216.577Z" transform="translate(-8.944 -11.175)" fill="#00233f"/>
        <g id="Groupe_43" data-name="Groupe 43">
          <path id="Tracé_731" data-name="Tracé 731" d="M12.27,53.272l.576,5.216L7.63,57.91Z" transform="translate(-4.271 -14.658)" fill="#00233f"/>
          <path id="Tracé_732" data-name="Tracé 732" d="M25.632,40.523l.578,5.216-5.216-.576Z" transform="translate(-6.685 -12.356)" fill="#00233f"/>
          <path id="Tracé_733" data-name="Tracé 733" d="M14.417,58.709l-.577-5.216,5.217.576Z" transform="translate(-5.393 -14.698)" fill="#00233f"/>
          <path id="Tracé_734" data-name="Tracé 734" d="M13.955,50.262l-.576-5.217,5.218.576Z" transform="translate(-5.31 -13.173)" fill="#00233f"/>
          <path id="Tracé_735" data-name="Tracé 735" d="M25.553,38.434l-.577-5.216,5.218.575Z" transform="translate(-7.404 -11.037)" fill="#00233f"/>
          <path id="Tracé_736" data-name="Tracé 736" d="M13.955,41.045l-.576-5.218,5.218.579Z" transform="translate(-5.31 -11.508)" fill="#00233f"/>
          <path id="Tracé_737" data-name="Tracé 737" d="M8.2,37.742l-.575-5.217,5.214.577Z" transform="translate(-4.27 -10.911)" fill="#00233f"/>
          <path id="Tracé_738" data-name="Tracé 738" d="M5.887,15.593l.294,2.649-2.65-.293Z" transform="translate(-3.531 -7.853)" fill="#00233f"/>
          <g id="Groupe_42" data-name="Groupe 42" transform="translate(4.468 23.568)">
            <path id="Tracé_739" data-name="Tracé 739" d="M34.619,34.91l-8.364,8.364a10.584,10.584,0,0,1,4.6.161l-.139-1.254,1.742.193-1.172,1.171a11.041,11.041,0,1,1-13.935,8.636L8.984,60.546c.171.52.369,1.027.581,1.526l1.283-1.283.193,1.744L9.7,62.383A20.246,20.246,0,1,0,34.619,34.91Zm-1.784,3.643,2.357-2.358.293,2.65Zm-20.3,25.006-.292-2.652,2.65.293Zm.292-5.372,2.356-2.358.293,2.651ZM39.211,40.275l-.191-1.744,1.743.192Z" transform="translate(-8.984 -34.91)" fill="#00233f"/>
          </g>
          <path id="Tracé_740" data-name="Tracé 740" d="M11.669,24.659l-.494-4.454,4.455.49Z" transform="translate(-4.912 -8.686)" fill="#00233f"/>
          <path id="Tracé_741" data-name="Tracé 741" d="M7.982,10.6,7.489,6.147l4.453.492Z" transform="translate(-4.246 -6.147)" fill="#00233f"/>
        </g>
      </g>
      <g id="Groupe_45" data-name="Groupe 45" transform="translate(0.296 0.171)">
        <path id="Tracé_742" data-name="Tracé 742" d="M28.241,44.96l-.575-5.217,5.216.579Z" transform="translate(-5.293 -7.349)" fill="#2d567a"/>
        <path id="Tracé_743" data-name="Tracé 743" d="M20.171,51.007l-.262-4.275,4.273.262Z" transform="translate(-3.892 -8.611)" fill="#2d567a"/>
        <path id="Tracé_744" data-name="Tracé 744" d="M8.658,64.7l-.576-5.217,5.216.577Z" transform="translate(-1.756 -10.914)" fill="#2d567a"/>
        <path id="Tracé_745" data-name="Tracé 745" d="M31.776,33.38l.576,5.218-5.217-.578Z" transform="translate(-5.197 -6.2)" fill="#2d567a"/>
        <path id="Tracé_746" data-name="Tracé 746" d="M19.718,44.5l-.577-5.215,5.216.575Z" transform="translate(-3.753 -7.267)" fill="#2d567a"/>
        <path id="Tracé_747" data-name="Tracé 747" d="M11.731,44.439l.577,5.216L7.091,49.08Z" transform="translate(-1.577 -8.197)" fill="#2d567a"/>
        <path id="Tracé_748" data-name="Tracé 748" d="M8.2,46.959l-.575-5.217,5.214.577Z" transform="translate(-1.672 -7.71)" fill="#2d567a"/>
        <path id="Tracé_749" data-name="Tracé 749" d="M.655,16.761.361,14.109l2.649.293Z" transform="translate(-0.361 -2.72)" fill="#2d567a"/>
        <path id="Tracé_750" data-name="Tracé 750" d="M4.878,2.858,4.586.209,7.235.5Z" transform="translate(-1.124 -0.209)" fill="#2d567a"/>
        <path id="Tracé_751" data-name="Tracé 751" d="M9.263,19.4l.494,4.455L5.3,23.361Z" transform="translate(-1.254 -3.675)" fill="#2d567a"/>
        <path id="Tracé_752" data-name="Tracé 752" d="M13.9,13.214,13.4,8.759l4.455.493Z" transform="translate(-2.716 -1.753)" fill="#2d567a"/>
        <path id="Tracé_753" data-name="Tracé 753" d="M13.955,31.829l-.576-5.216,5.218.578Z" transform="translate(-2.712 -4.978)" fill="#2d567a"/>
      </g>
      <g id="Groupe_46" data-name="Groupe 46" transform="translate(3.444)">
        <path id="Tracé_754" data-name="Tracé 754" d="M6.522,29.88,6.03,25.425l4.454.493Z" transform="translate(-4.533 -4.592)" fill="#c1e4ec"/>
        <path id="Tracé_755" data-name="Tracé 755" d="M17.551,19.449,17.259,16.8l2.648.293Z" transform="translate(-6.561 -3.034)" fill="#c1e4ec"/>
        <path id="Tracé_756" data-name="Tracé 756" d="M4.494,22.751,4.2,20.1l2.648.291Z" transform="translate(-4.203 -3.63)" fill="#c1e4ec"/>
        <path id="Tracé_757" data-name="Tracé 757" d="M18.945,4.684l.29,2.65-2.649-.293Z" transform="translate(-6.44 -0.846)" fill="#c1e4ec"/>
        <path id="Tracé_758" data-name="Tracé 758" d="M12.109,0,12.4,2.65,9.753,2.357Z" transform="translate(-5.205)" fill="#c1e4ec"/>
        <path id="Tracé_759" data-name="Tracé 759" d="M11.262,8.647l.492,4.453L7.3,12.607Z" transform="translate(-4.762 -1.562)" fill="#c1e4ec"/>
        <path id="Tracé_760" data-name="Tracé 760" d="M17.415,20.247l.576,5.217-5.216-.577Z" transform="translate(-5.751 -3.657)" fill="#c1e4ec"/>
      </g>
      <g id="Groupe_47" data-name="Groupe 47" transform="translate(0 3.696)">
        <path id="Tracé_761" data-name="Tracé 761" d="M18.336,47.28l.578,5.216L13.7,51.921Z" transform="translate(-2.473 -12.235)" fill="#8acddd"/>
        <path id="Tracé_762" data-name="Tracé 762" d="M8.2,56.175l-.575-5.217,5.214.576Z" transform="translate(-1.376 -12.899)" fill="#8acddd"/>
        <path id="Tracé_763" data-name="Tracé 763" d="M23.25,32.918l.575,5.218-5.216-.577Z" transform="translate(-3.361 -9.641)" fill="#8acddd"/>
        <path id="Tracé_764" data-name="Tracé 764" d="M17.415,38.68l.576,5.216-5.216-.576Z" transform="translate(-2.307 -10.682)" fill="#8acddd"/>
        <path id="Tracé_765" data-name="Tracé 765" d="M17.415,29.464l.576,5.216L12.775,34.1Z" transform="translate(-2.307 -9.017)" fill="#8acddd"/>
        <path id="Tracé_766" data-name="Tracé 766" d="M11.731,35.223l.577,5.217-5.217-.577Z" transform="translate(-1.281 -10.058)" fill="#8acddd"/>
        <path id="Tracé_767" data-name="Tracé 767" d="M14.323,7.16l-.292-2.649,2.649.292Z" transform="translate(-2.534 -4.511)" fill="#8acddd"/>
        <path id="Tracé_768" data-name="Tracé 768" d="M19.329,12.979l.292,2.651-2.65-.294Z" transform="translate(-3.065 -6.04)" fill="#8acddd"/>
        <path id="Tracé_769" data-name="Tracé 769" d="M2.355,5.758l.294,2.651L0,8.116Z" transform="translate(0 -4.736)" fill="#8acddd"/>
        <path id="Tracé_770" data-name="Tracé 770" d="M14.947,14.175l.493,4.456-4.455-.491Z" transform="translate(-1.984 -6.256)" fill="#8acddd"/>
        <path id="Tracé_771" data-name="Tracé 771" d="M7.982,19.128l-.493-4.454,4.455.491Z" transform="translate(-1.353 -6.346)" fill="#8acddd"/>
        <path id="Tracé_772" data-name="Tracé 772" d="M11.731,26.008l.577,5.215-5.217-.575Z" transform="translate(-1.281 -8.393)" fill="#8acddd"/>
      </g>
    </g>
  </g>
</svg>
