<svg xmlns="http://www.w3.org/2000/svg" width="81.393" height="81.474" viewBox="0 0 81.393 81.474" alt="CNRSLIGHT">
  <g id="LOGO_CNRS_BLEU" data-name="LOGO CNRS_BLEU" transform="translate(40.697 40.737)">
    <g id="LOGO_CNRS_BLEU-2" data-name="LOGO CNRS_BLEU" transform="translate(-40.697 -40.737)">
      <path id="Tracé_893" data-name="Tracé 893" d="M235.305,320.58c-.725-.04-1.449-.08-2.174-.08-10.063,0-19.2,4.267-27.171,12.8-7.246,7.729-9.661,13.968-9.661,21.455a70.548,70.548,0,0,0,1.771,13.606,46.084,46.084,0,0,0,15.9,25.842,32.167,32.167,0,0,0,20.408,7.769,34.152,34.152,0,0,0,11.593-2.013c12.72-4.388,24.836-16.947,29.546-30.512a37.068,37.068,0,0,0,2.174-12.478c-.04-9.741-4.468-18.275-12.961-24.353C254.466,325.169,244.563,321.144,235.305,320.58Z" transform="translate(-196.3 -320.5)" fill="#00284b"/>
      <g id="Groupe_69" data-name="Groupe 69" transform="translate(7.648 22.461)">
        <path id="Tracé_894" data-name="Tracé 894" d="M232.166,394.715h-2.777v.081c-.04.523-.362,5.273-4.589,5.273-3.784,0-5.716-3.422-5.716-10.1,0-6.722,1.932-10.1,5.716-10.1,4.307,0,4.589,5.072,4.589,5.273v.081h2.777a1.05,1.05,0,0,0,.684-.282.914.914,0,0,0,.242-.644c-.04-1.328-.725-7.89-8.373-7.89-6.159,0-9.419,4.669-9.419,13.565s3.26,13.606,9.419,13.606c7.366,0,8.252-6,8.373-7.849a1.093,1.093,0,0,0-.242-.684A.992.992,0,0,0,232.166,394.715Z" transform="translate(-215.3 -376.36)" fill="#fff"/>
        <path id="Tracé_895" data-name="Tracé 895" d="M350.788,388.3h0l-2.415-1.047c-2.294-1.006-3.14-2.013-3.14-3.784,0-2.294,1.691-3.864,4.227-3.864a5.287,5.287,0,0,1,4.186,1.811l.08.081,1.288-1.167a1.174,1.174,0,0,0,.2-1.731,7.186,7.186,0,0,0-5.676-2.294c-4.629,0-7.97,3.019-7.97,7.165,0,4.106,2.576,5.8,5.354,7.044l2.455,1.087c2.455,1.087,3.623,2.053,3.623,4.428,0,3.22-2.938,4.106-4.669,4.106-1.489,0-3.14-.322-5.193-2.616l-.081-.081-1.328,1.167c-.684.6-.684,1.127-.04,1.972a7.936,7.936,0,0,0,6.481,2.858c4.186,0,8.453-2.576,8.453-7.487C356.7,391.717,354.33,389.825,350.788,388.3Z" transform="translate(-290.529 -376.3)" fill="#fff"/>
        <path id="Tracé_896" data-name="Tracé 896" d="M281.9,384.229a7.706,7.706,0,0,0-7.608-7.729,7.618,7.618,0,0,0-5.112,1.972v-1.449h-2.536a.963.963,0,0,0-1.047,1.087v24.474a.953.953,0,0,0,1.047,1.047h2.536V384.39a4.589,4.589,0,0,1,9.178,0v19.241h2.5a.953.953,0,0,0,1.047-1.047Z" transform="translate(-245.353 -376.42)" fill="#fff"/>
        <path id="Tracé_897" data-name="Tracé 897" d="M324.972,378.252a.988.988,0,0,0,.2-.6.957.957,0,0,0-.644-.886,7.278,7.278,0,0,0-2.335-.362,7.618,7.618,0,0,0-5.112,1.972v-1.449h-2.536a.963.963,0,0,0-1.047,1.087v24.474a.953.953,0,0,0,1.047,1.047h2.536V384.29a4.587,4.587,0,0,1,4.589-4.589,4.775,4.775,0,0,1,1.852.4l1.449-1.852Z" transform="translate(-273.971 -376.36)" fill="#fff"/>
      </g>
    </g>
  </g>
</svg>
