<svg width="37" height="12" viewBox="0 0 37 12" fill="none" xmlns="http://www.w3.org/2000/svg">
<path d="M5.18732 0.949263V11H3.06233V2.96628H3.00344L0.701785 4.40911V2.5246L3.18993 0.949263H5.18732ZM11.5169 11.2208C10.6728 11.2176 9.94645 11.0098 9.33791 10.5976C8.73264 10.1853 8.26642 9.58825 7.93925 8.80631C7.61535 8.02437 7.45503 7.08375 7.4583 5.98445C7.4583 4.88842 7.62025 3.95434 7.94416 3.18221C8.27133 2.41009 8.73755 1.82281 9.34282 1.42039C9.95136 1.0147 10.676 0.81185 11.5169 0.81185C12.3577 0.81185 13.0808 1.0147 13.686 1.42039C14.2946 1.82609 14.7624 2.415 15.0896 3.18712C15.4168 3.95598 15.5787 4.88842 15.5755 5.98445C15.5755 7.08702 15.4119 8.02927 15.0847 8.81122C14.7608 9.59316 14.2962 10.1902 13.6909 10.6025C13.0857 11.0147 12.361 11.2208 11.5169 11.2208ZM11.5169 9.45902C12.0927 9.45902 12.5524 9.16947 12.8959 8.59038C13.2394 8.01128 13.4096 7.14264 13.4063 5.98445C13.4063 5.22213 13.3278 4.58742 13.1707 4.0803C13.017 3.57319 12.7978 3.19203 12.5131 2.93684C12.2317 2.68164 11.8997 2.55404 11.5169 2.55404C10.9443 2.55404 10.4863 2.84032 10.1428 3.41287C9.79922 3.98542 9.62582 4.84261 9.62255 5.98445C9.62255 6.75657 9.69944 7.4011 9.85321 7.91804C10.0102 8.4317 10.2311 8.81776 10.5157 9.07623C10.8004 9.33142 11.1341 9.45902 11.5169 9.45902ZM21.0315 11.2208C20.1874 11.2176 19.461 11.0098 18.8525 10.5976C18.2472 10.1853 17.781 9.58825 17.4538 8.80631C17.1299 8.02437 16.9696 7.08375 16.9729 5.98445C16.9729 4.88842 17.1348 3.95434 17.4587 3.18221C17.7859 2.41009 18.2521 1.82281 18.8574 1.42039C19.4659 1.0147 20.1906 0.81185 21.0315 0.81185C21.8723 0.81185 22.5953 1.0147 23.2006 1.42039C23.8092 1.82609 24.277 2.415 24.6042 3.18712C24.9314 3.95598 25.0933 4.88842 25.09 5.98445C25.09 7.08702 24.9264 8.02927 24.5993 8.81122C24.2754 9.59316 23.8108 10.1902 23.2055 10.6025C22.6003 11.0147 21.8756 11.2208 21.0315 11.2208ZM21.0315 9.45902C21.6073 9.45902 22.067 9.16947 22.4105 8.59038C22.754 8.01128 22.9242 7.14264 22.9209 5.98445C22.9209 5.22213 22.8424 4.58742 22.6853 4.0803C22.5315 3.57319 22.3123 3.19203 22.0277 2.93684C21.7463 2.68164 21.4143 2.55404 21.0315 2.55404C20.4589 2.55404 20.0009 2.84032 19.6573 3.41287C19.3138 3.98542 19.1404 4.84261 19.1371 5.98445C19.1371 6.75657 19.214 7.4011 19.3678 7.91804C19.5248 8.4317 19.7457 8.81776 20.0303 9.07623C20.315 9.33142 20.6487 9.45902 21.0315 9.45902ZM32.1067 9.11549V8.58547C32.1067 8.18305 32.1917 7.81334 32.3619 7.47635C32.5353 7.13609 32.7855 6.86454 33.1127 6.66169C33.4432 6.45557 33.8456 6.35252 34.32 6.35252C34.8009 6.35252 35.205 6.45394 35.5322 6.65679C35.8626 6.85963 36.1112 7.13119 36.2781 7.47145C36.4482 7.80843 36.5333 8.17977 36.5333 8.58547V9.11549C36.5333 9.51791 36.4482 9.88925 36.2781 10.2295C36.108 10.5665 35.8577 10.8364 35.5272 11.0393C35.1968 11.2454 34.7944 11.3484 34.32 11.3484C33.839 11.3484 33.435 11.2454 33.1078 11.0393C32.7806 10.8364 32.532 10.5665 32.3619 10.2295C32.1917 9.88925 32.1067 9.51791 32.1067 9.11549ZM33.5348 8.58547V9.11549C33.5348 9.34778 33.5904 9.56698 33.7016 9.7731C33.8161 9.97922 34.0223 10.0823 34.32 10.0823C34.6177 10.0823 34.8206 9.98086 34.9285 9.77801C35.0398 9.57516 35.0954 9.35432 35.0954 9.11549V8.58547C35.0954 8.34663 35.043 8.12415 34.9383 7.91804C34.8336 7.71192 34.6275 7.60886 34.32 7.60886C34.0255 7.60886 33.821 7.71192 33.7065 7.91804C33.592 8.12415 33.5348 8.34663 33.5348 8.58547ZM26.9488 3.3638V2.83378C26.9488 2.42808 27.0355 2.05674 27.2089 1.71975C27.3823 1.37949 27.6326 1.10794 27.9597 0.905095C28.2902 0.702248 28.6893 0.600824 29.1572 0.600824C29.6414 0.600824 30.0471 0.702248 30.3743 0.905095C30.7015 1.10794 30.9501 1.37949 31.1202 1.71975C31.2904 2.05674 31.3754 2.42808 31.3754 2.83378V3.3638C31.3754 3.76949 31.2887 4.14083 31.1153 4.47782C30.9452 4.81481 30.6949 5.08472 30.3645 5.28757C30.0373 5.48714 29.6349 5.58693 29.1572 5.58693C28.6795 5.58693 28.2755 5.48551 27.945 5.28266C27.6179 5.07654 27.3692 4.80663 27.1991 4.47291C27.0322 4.13592 26.9488 3.76622 26.9488 3.3638ZM28.3867 2.83378V3.3638C28.3867 3.60263 28.4423 3.82347 28.5536 4.02632C28.6681 4.22917 28.8693 4.33059 29.1572 4.33059C29.4582 4.33059 29.6627 4.22917 29.7706 4.02632C29.8819 3.82347 29.9375 3.60263 29.9375 3.3638V2.83378C29.9375 2.59494 29.8852 2.37246 29.7805 2.16634C29.6758 1.96023 29.468 1.85717 29.1572 1.85717C28.866 1.85717 28.6648 1.96186 28.5536 2.17125C28.4423 2.38064 28.3867 2.60148 28.3867 2.83378ZM27.5966 11L34.5065 0.949263H35.7923L28.8824 11H27.5966Z" fill="#858E96"/>
</svg>
