<svg width="33" height="12" viewBox="0 0 33 12" fill="none" xmlns="http://www.w3.org/2000/svg" alt="completed">
    <path
        d="M4.57387 0.949263V11H3.35679V2.22524H3.2979L0.844105 3.85455V2.61784L3.35679 0.949263H4.57387ZM10.4663 11.1374C9.7269 11.1374 9.09709 10.9362 8.57689 10.5338C8.05669 10.1281 7.65917 9.54081 7.38435 8.77196C7.10952 7.99983 6.97211 7.06739 6.97211 5.97463C6.97211 4.88842 7.10952 3.96089 7.38435 3.19203C7.66244 2.4199 8.06159 1.83099 8.5818 1.4253C9.10527 1.01633 9.73344 0.81185 10.4663 0.81185C11.1992 0.81185 11.8257 1.01633 12.3459 1.4253C12.8694 1.83099 13.2685 2.4199 13.5434 3.19203C13.8215 3.96089 13.9605 4.88842 13.9605 5.97463C13.9605 7.06739 13.8231 7.99983 13.5483 8.77196C13.2735 9.54081 12.8759 10.1281 12.3557 10.5338C11.8355 10.9362 11.2057 11.1374 10.4663 11.1374ZM10.4663 10.0577C11.1992 10.0577 11.7685 9.7044 12.1742 8.9977C12.5798 8.29101 12.7827 7.28332 12.7827 5.97463C12.7827 5.10435 12.6894 4.36331 12.503 3.75149C12.3197 3.13968 12.0547 2.67346 11.7079 2.35283C11.3644 2.0322 10.9505 1.87189 10.4663 1.87189C9.73999 1.87189 9.17234 2.23014 8.76338 2.94665C8.35441 3.65989 8.14993 4.66921 8.14993 5.97463C8.14993 6.84491 8.24154 7.58432 8.42476 8.19286C8.60797 8.8014 8.87135 9.26435 9.21488 9.58171C9.56168 9.89906 9.97882 10.0577 10.4663 10.0577ZM18.8273 11.1374C18.0879 11.1374 17.4581 10.9362 16.9378 10.5338C16.4176 10.1281 16.0201 9.54081 15.7453 8.77196C15.4705 7.99983 15.3331 7.06739 15.3331 5.97463C15.3331 4.88842 15.4705 3.96089 15.7453 3.19203C16.0234 2.4199 16.4226 1.83099 16.9428 1.4253C17.4662 1.01633 18.0944 0.81185 18.8273 0.81185C19.5601 0.81185 20.1867 1.01633 20.7069 1.4253C21.2303 1.83099 21.6295 2.4199 21.9043 3.19203C22.1824 3.96089 22.3215 4.88842 22.3215 5.97463C22.3215 7.06739 22.1841 7.99983 21.9092 8.77196C21.6344 9.54081 21.2369 10.1281 20.7167 10.5338C20.1965 10.9362 19.5667 11.1374 18.8273 11.1374ZM18.8273 10.0577C19.5601 10.0577 20.1294 9.7044 20.5351 8.9977C20.9408 8.29101 21.1436 7.28332 21.1436 5.97463C21.1436 5.10435 21.0504 4.36331 20.8639 3.75149C20.6807 3.13968 20.4157 2.67346 20.0689 2.35283C19.7254 2.0322 19.3115 1.87189 18.8273 1.87189C18.1009 1.87189 17.5333 2.23014 17.1243 2.94665C16.7154 3.65989 16.5109 4.66921 16.5109 5.97463C16.5109 6.84491 16.6025 7.58432 16.7857 8.19286C16.9689 8.8014 17.2323 9.26435 17.5758 9.58171C17.9226 9.89906 18.3398 10.0577 18.8273 10.0577ZM29.0335 9.11549V8.58547C29.0335 8.21903 29.1087 7.88368 29.2592 7.57941C29.413 7.27187 29.6355 7.02649 29.9267 6.84327C30.2211 6.65679 30.5777 6.56354 30.9965 6.56354C31.4218 6.56354 31.7785 6.65679 32.0664 6.84327C32.3543 7.02649 32.5718 7.27187 32.7191 7.57941C32.8663 7.88368 32.9399 8.21903 32.9399 8.58547V9.11549C32.9399 9.48192 32.8647 9.81891 32.7142 10.1264C32.5669 10.4307 32.3477 10.6761 32.0566 10.8626C31.7686 11.0458 31.4153 11.1374 30.9965 11.1374C30.5712 11.1374 30.2129 11.0458 29.9218 10.8626C29.6306 10.6761 29.4097 10.4307 29.2592 10.1264C29.1087 9.81891 29.0335 9.48192 29.0335 9.11549ZM30.0346 8.58547V9.11549C30.0346 9.41976 30.1066 9.69295 30.2506 9.93505C30.3945 10.1739 30.6432 10.2933 30.9965 10.2933C31.34 10.2933 31.5822 10.1739 31.7228 9.93505C31.8668 9.69295 31.9388 9.41976 31.9388 9.11549V8.58547C31.9388 8.2812 31.8701 8.00964 31.7327 7.77081C31.5952 7.5287 31.3499 7.40765 30.9965 7.40765C30.653 7.40765 30.406 7.5287 30.2555 7.77081C30.1082 8.00964 30.0346 8.2812 30.0346 8.58547ZM24.0277 3.3638V2.83378C24.0277 2.46734 24.103 2.13199 24.2535 1.82772C24.4073 1.52018 24.6297 1.2748 24.9209 1.09158C25.2154 0.905095 25.572 0.81185 25.9908 0.81185C26.4161 0.81185 26.7727 0.905095 27.0606 1.09158C27.3485 1.2748 27.5661 1.52018 27.7133 1.82772C27.8606 2.13199 27.9342 2.46734 27.9342 2.83378V3.3638C27.9342 3.73023 27.8589 4.06722 27.7084 4.37476C27.5612 4.67903 27.342 4.92441 27.0508 5.1109C26.7629 5.29411 26.4096 5.38572 25.9908 5.38572C25.5654 5.38572 25.2072 5.29411 24.916 5.1109C24.6248 4.92441 24.404 4.67903 24.2535 4.37476C24.103 4.06722 24.0277 3.73023 24.0277 3.3638ZM25.0289 2.83378V3.3638C25.0289 3.66807 25.1009 3.94125 25.2448 4.18336C25.3888 4.4222 25.6374 4.54162 25.9908 4.54162C26.3343 4.54162 26.5764 4.4222 26.7171 4.18336C26.8611 3.94125 26.933 3.66807 26.933 3.3638V2.83378C26.933 2.52951 26.8643 2.25795 26.7269 2.01912C26.5895 1.77701 26.3441 1.65596 25.9908 1.65596C25.6472 1.65596 25.4002 1.77701 25.2497 2.01912C25.1025 2.25795 25.0289 2.52951 25.0289 2.83378ZM24.4007 11L31.3106 0.949263H32.4295L25.5196 11H24.4007Z"
        fill="#858E96" />
</svg>