<svg width="17" height="17" viewBox="0 0 17 17" fill="none" xmlns="http://www.w3.org/2000/svg">
<path d="M12.9325 7.93854H8.56162V3.56763C8.56162 3.21741 8.27747 2.93325 7.92725 2.93325C7.57703 2.93325 7.29287 3.21741 7.29287 3.56763V8.57292C7.29287 8.92314 7.57703 9.2073 7.92725 9.2073H12.9325C13.2828 9.2073 13.5669 8.92314 13.5669 8.57292C13.5669 8.2227 13.2828 7.93854 12.9325 7.93854Z" fill="#858E96" stroke="#858E96" stroke-width="0.3"/>
<path d="M8.25 0.35C3.89363 0.35 0.35 3.89364 0.35 8.25001C0.35 12.6064 3.89363 16.15 8.25 16.15C12.6064 16.15 16.15 12.6064 16.15 8.25001C16.15 3.89364 12.6064 0.35 8.25 0.35ZM8.25 14.8813C4.59348 14.8813 1.61875 11.9065 1.61875 8.25001C1.61875 4.59348 4.59348 1.61875 8.25 1.61875C11.9065 1.61875 14.8813 4.59348 14.8813 8.25001C14.8813 11.9065 11.9065 14.8813 8.25 14.8813Z" fill="#858E96" stroke="#858E96" stroke-width="0.3"/>
</svg>
