<svg width="177" height="122" viewBox="0 0 177 122" fill="none" xmlns="http://www.w3.org/2000/svg">
<path fill-rule="evenodd" clip-rule="evenodd" d="M83.405 76.085C84.994 78.8454 87.0593 81.0269 89.6011 82.6297C92.7075 84.5884 96.3955 85.5754 100.665 85.5907C104.935 85.5907 108.615 84.619 111.706 82.6756C114.813 80.7168 117.207 77.8935 118.891 74.2055C120.574 70.5176 121.416 66.0798 121.416 60.8922C121.431 55.7352 120.597 51.351 118.914 47.7395C117.358 44.4027 115.196 41.8039 112.425 39.9433L105.15 49.0038C106.009 49.9654 106.701 51.2885 107.23 52.973C107.873 55.0236 108.194 57.6633 108.194 60.8922C108.209 65.835 107.506 69.4617 106.082 71.7724C104.675 74.0678 102.869 75.2155 100.665 75.2155C99.1957 75.2155 97.8875 74.7105 96.7398 73.7005C95.6074 72.6906 94.7198 71.1297 94.0771 69.0179C93.6391 67.5684 93.354 65.8489 93.2215 63.8595L83.405 76.085ZM98.9028 47.2008C97.4826 47.6523 96.2719 48.6811 95.2707 50.2874C94.7556 51.1138 94.3337 52.1183 94.0049 53.3007L80.8706 69.6582C80.2237 67.02 79.905 64.098 79.9145 60.8922C79.9298 55.7199 80.7714 51.328 82.4394 47.7166C82.6892 47.1806 82.9545 46.6637 83.2353 46.1658L87.1837 41.2485C87.935 40.5907 88.7408 39.9999 89.6011 39.476C92.7075 37.5938 96.3955 36.6527 100.665 36.6527C102.853 36.6527 104.889 36.902 106.772 37.4005L98.9028 47.2008ZM72.5621 49.8751C72.3042 49.1355 72.0158 48.4236 71.6969 47.7395C70.0136 44.1281 67.6188 41.3812 64.5123 39.499C61.4059 37.6015 57.7179 36.6527 53.4485 36.6527C49.179 36.6527 45.4911 37.5938 42.3846 39.476C39.2935 41.3583 36.9063 44.1051 35.223 47.7166C33.555 51.328 32.7133 55.7199 32.698 60.8922C32.6827 66.0492 33.5167 70.4717 35.2 74.1596C36.8833 77.8476 39.2782 80.6709 42.3846 82.6297C43.2529 83.1772 44.1666 83.6487 45.1258 84.0444L52.3023 75.1067C51.2899 74.9086 50.3635 74.4399 49.5233 73.7005C48.3909 72.6906 47.5034 71.1297 46.8607 69.0179C46.2179 66.8908 45.9042 64.1823 45.9195 60.8922C45.9501 56.0565 46.6617 52.5216 48.0543 50.2874C49.4468 48.0532 51.2449 46.9361 53.4485 46.9361C54.9175 46.9361 56.2183 47.4335 57.3507 48.4281C58.4831 49.4075 59.3706 50.9225 60.0133 52.973C60.656 55.0236 60.9774 57.6633 60.9774 60.8922C60.9814 62.1725 60.9371 63.3645 60.8445 64.4682L72.5621 49.8751ZM51.6333 85.5231L74.0829 57.5642C74.1637 58.6353 74.2023 59.7446 74.1989 60.8922C74.1989 66.0798 73.3573 70.5176 71.674 74.2055C69.9907 77.8935 67.5958 80.7168 64.4894 82.6756C61.3982 84.619 57.7179 85.5907 53.4485 85.5907C52.8313 85.5885 52.2262 85.5659 51.6333 85.5231ZM23.3213 84.3053V37.2954H11.5688L0 44.3653V55.1996L10.2834 49.0479H10.5589V84.3053H23.3213ZM154.309 73.0119V75.491C154.309 77.4803 154.73 79.3166 155.571 80.9999C156.428 82.6832 157.683 84.0375 159.336 85.0628C160.988 86.0881 163.016 86.6007 165.419 86.6007C167.821 86.6007 169.856 86.0881 171.524 85.0628C173.192 84.0375 174.455 82.6832 175.312 80.9999C176.184 79.3166 176.62 77.4803 176.62 75.491V73.0119C176.62 70.992 176.192 69.1403 175.335 67.457C174.478 65.7737 173.215 64.4271 171.547 63.4171C169.895 62.4072 167.852 61.9022 165.419 61.9022C163.047 61.9022 161.034 62.4148 159.382 63.4401C157.729 64.4654 156.466 65.8197 155.594 67.5029C154.737 69.1862 154.309 71.0226 154.309 73.0119ZM162.297 75.491V73.0119C162.297 72.0938 162.511 71.2062 162.94 70.3492C163.383 69.4923 164.21 69.0638 165.419 69.0638C166.735 69.0638 167.584 69.4923 167.966 70.3492C168.349 71.2062 168.54 72.0938 168.54 73.0119V75.491C168.54 76.4091 168.334 77.2814 167.921 78.1077C167.523 78.9341 166.689 79.3472 165.419 79.3472C164.21 79.3472 163.383 78.9264 162.94 78.0848C162.511 77.2278 162.297 76.3632 162.297 75.491ZM129.702 46.1098V48.5888C129.702 50.5782 130.123 52.4068 130.965 54.0748C131.821 55.7428 133.076 57.0818 134.729 58.0918C136.382 59.1018 138.409 59.6068 140.812 59.6068C143.214 59.6068 145.25 59.1094 146.918 58.1147C148.586 57.1201 149.848 55.7887 150.705 54.1207C151.577 52.4528 152.013 50.6088 152.013 48.5888V46.1098C152.013 44.0898 151.585 42.2382 150.728 40.5549C149.871 38.8716 148.609 37.5249 146.941 36.515C145.288 35.505 143.245 35 140.812 35C138.471 35 136.474 35.505 134.821 36.515C133.168 37.5249 131.898 38.8716 131.01 40.5549C130.138 42.2382 129.702 44.0898 129.702 46.1098ZM137.782 48.5888V46.1098C137.782 45.2375 137.981 44.3653 138.379 43.493C138.792 42.6054 139.603 42.1617 140.812 42.1617C142.128 42.1617 142.977 42.5901 143.36 43.4471C143.742 44.304 143.934 45.1916 143.934 46.1098V48.5888C143.934 49.507 143.727 50.3792 143.314 51.2056C142.916 52.0319 142.082 52.4451 140.812 52.4451C139.649 52.4451 138.853 52.0319 138.425 51.2056C137.996 50.3792 137.782 49.507 137.782 48.5888ZM165.924 37.2954L133.604 84.3053H140.123L172.442 37.2954H165.924Z" fill="#858E96"/>
<rect x="29" y="113.711" width="145.831" height="12.8646" transform="rotate(-51.2372 29 113.711)" fill="#858E96"/>
</svg>
