<svg width="198" height="156" viewBox="0 0 198 156" fill="none" xmlns="http://www.w3.org/2000/svg">
<g clip-path="url(#clip0_1_35)">
<path d="M179.751 0.101685H0.0767212V114.988H179.751V0.101685Z" fill="#EBF0F4"/>
<path d="M174.613 14.5114H5.21445V108.192H174.613V14.5114Z" fill="white"/>
<path d="M179.674 0H0V7.62098H179.674V0Z" fill="#6C63FF"/>
<path d="M5.67239 5.30874C6.45374 5.30874 7.08714 4.67635 7.08714 3.89625C7.08714 3.11616 6.45374 2.48376 5.67239 2.48376C4.89104 2.48376 4.25763 3.11616 4.25763 3.89625C4.25763 4.67635 4.89104 5.30874 5.67239 5.30874Z" fill="white"/>
<path d="M11.0424 5.30874C11.8238 5.30874 12.4572 4.67635 12.4572 3.89625C12.4572 3.11616 11.8238 2.48376 11.0424 2.48376C10.2611 2.48376 9.62769 3.11616 9.62769 3.89625C9.62769 4.67635 10.2611 5.30874 11.0424 5.30874Z" fill="white"/>
<path d="M16.4125 5.30874C17.1938 5.30874 17.8273 4.67635 17.8273 3.89625C17.8273 3.11616 17.1938 2.48376 16.4125 2.48376C15.6312 2.48376 14.9977 3.11616 14.9977 3.89625C14.9977 4.67635 15.6312 5.30874 16.4125 5.30874Z" fill="white"/>
<path d="M64.1341 24.2315H20.6066V98.4717H64.1341V24.2315Z" fill="#EBF0F4"/>
<path d="M107.921 24.2315H71.6478V44.6669H107.921V24.2315Z" fill="#6C63FF"/>
<path d="M107.921 50.3578H71.6478V72.3453H107.921V50.3578Z" fill="#EBF0F4"/>
<path d="M107.921 78.0362H71.6478V98.4717H107.921V78.0362Z" fill="#EBF0F4"/>
<path d="M159.221 24.2315H115.693V56.585H159.221V24.2315Z" fill="#EBF0F4"/>
<path d="M159.221 66.1182H115.693V98.4717H159.221V66.1182Z" fill="#EBF0F4"/>
<path d="M142.453 58.9092V51.944C142.453 49.4686 143.438 47.0946 145.191 45.3443C146.944 43.5939 149.322 42.6106 151.801 42.6106C154.28 42.6106 156.658 43.5939 158.411 45.3443C160.164 47.0946 161.149 49.4686 161.149 51.944V58.9092C161.149 59.2416 161.017 59.5603 160.781 59.7953C160.546 60.0304 160.227 60.1626 159.894 60.163H143.708C143.375 60.1626 143.056 60.0304 142.821 59.7953C142.585 59.5603 142.453 59.2416 142.453 58.9092Z" fill="#202B40"/>
<path d="M165.624 149.554L162.327 150.465L157.238 138.201L162.104 136.856L165.624 149.554Z" fill="#FACECE"/>
<path d="M159.711 150.175L166.07 148.418L167.178 152.415L156.815 155.279C156.67 154.754 156.629 154.205 156.696 153.665C156.763 153.124 156.936 152.602 157.204 152.128C157.473 151.654 157.833 151.238 158.263 150.903C158.693 150.568 159.185 150.32 159.711 150.175Z" fill="#202B40"/>
<path d="M131.248 152.086H127.827L126.199 138.911H131.249L131.248 152.086Z" fill="#FACECE"/>
<path d="M125.383 151.11H131.981V155.258H121.229C121.229 154.713 121.336 154.174 121.545 153.67C121.754 153.167 122.06 152.71 122.446 152.325C122.831 151.94 123.289 151.634 123.793 151.426C124.297 151.217 124.838 151.11 125.383 151.11Z" fill="#202B40"/>
<path d="M127.123 78.4559C127.367 78.785 127.681 79.0566 128.041 79.2517C128.402 79.4467 128.801 79.5605 129.211 79.5848C129.62 79.6092 130.03 79.5436 130.411 79.3927C130.793 79.2418 131.136 79.0093 131.418 78.7115L140.513 82.7953L139.685 77.688L131.176 74.5929C130.643 74.1537 129.968 73.9248 129.278 73.9495C128.588 73.9742 127.93 74.2509 127.431 74.7271C126.931 75.2032 126.624 75.8458 126.567 76.533C126.51 77.2203 126.708 77.9044 127.123 78.4559Z" fill="#FACECE"/>
<path d="M146.019 109.169C143.162 109.169 140.204 108.744 137.717 107.481C136.398 106.823 135.228 105.9 134.281 104.771C133.335 103.641 132.632 102.328 132.218 100.915C130.922 96.8196 132.555 92.7962 134.135 88.9055C135.114 86.4944 136.038 84.2173 136.278 81.9726L136.362 81.1757C136.736 77.5962 137.058 74.5048 138.845 73.3454C139.771 72.7443 141.016 72.7101 142.651 73.2403L158.012 78.2222L157.447 107.334L157.354 107.365C157.273 107.392 151.858 109.169 146.019 109.169Z" fill="#202B40"/>
<path d="M142.383 64.1772C142.383 64.1772 149.917 61.9484 155.778 62.7842C155.778 62.7842 152.429 81.1724 153.545 87.3018C154.661 93.4313 134.151 89.67 138.336 83.8192L139.732 76.854C139.732 76.854 136.941 74.0679 139.453 70.7246L142.383 64.1772Z" fill="#6C63FF"/>
<path d="M138.677 108.617L129.391 106.879L132.633 81.9695C132.851 81.2741 137.873 65.4917 140.154 64.6377C141.81 64.0554 143.504 63.5857 145.223 63.2316L145.554 63.1656L143.692 65.9542L136.279 83.6889L138.677 108.617Z" fill="#202B40"/>
<path d="M133.838 149.034L121.84 147.037L128.573 119.587L138.593 82.0483L138.691 82.7149C138.699 82.7645 139.635 87.6685 153.523 85.4925L153.646 85.4735L153.679 85.5923L170.465 144.807L156.794 147.082L144.325 103.879L133.838 149.034Z" fill="#202B40"/>
<path d="M150.468 113.279L150.476 113.068C150.484 112.834 151.309 89.5612 151.034 80.2014C150.757 70.8097 153.802 62.6766 153.833 62.5955L153.858 62.5302L153.925 62.5109C157.866 61.3871 161.284 64.7413 161.318 64.7753L161.366 64.8232L160.244 74.0664L165.048 107.678L150.468 113.279Z" fill="#202B40"/>
<path d="M149.88 60.0008C153.665 60.0008 156.734 56.9371 156.734 53.1579C156.734 49.3786 153.665 46.3149 149.88 46.3149C146.095 46.3149 143.026 49.3786 143.026 53.1579C143.026 56.9371 146.095 60.0008 149.88 60.0008Z" fill="#FACECE"/>
<path d="M140.241 52.5012C140.243 50.5437 141.023 48.6671 142.409 47.283C143.796 45.8988 145.675 45.1203 147.636 45.118H149.031C150.992 45.1203 152.872 45.8988 154.258 47.283C155.644 48.6671 156.424 50.5437 156.426 52.5012V52.6405H153.478L152.472 49.8288L152.271 52.6405H150.747L150.239 51.2219L150.138 52.6405H140.241V52.5012Z" fill="#202B40"/>
<path d="M149.205 60.9462C149.067 60.7591 148.984 60.5367 148.967 60.3047C148.95 60.0727 148.998 59.8405 149.107 59.6348C150.586 56.827 152.656 51.6387 149.908 48.439L149.711 48.2091H157.688V60.167L150.441 61.4436C150.368 61.4566 150.293 61.4631 150.219 61.4632C150.021 61.4632 149.826 61.4163 149.65 61.3265C149.474 61.2366 149.321 61.1063 149.205 60.9462Z" fill="#202B40"/>
<path d="M117.087 11.5752C111.504 6.8724 104.673 3.89086 97.4249 2.99343C90.1764 2.096 82.8228 3.32137 76.2591 6.52044C69.6954 9.7195 64.2045 14.7543 60.4546 21.0123C56.7047 27.2702 54.8574 34.4814 55.1376 41.7684C55.4178 49.0554 57.8134 56.1039 62.0328 62.0564C66.2522 68.0089 72.1136 72.6086 78.9036 75.2958C85.6937 77.9831 93.1197 78.642 100.278 77.1923C107.436 75.7427 114.018 72.2471 119.223 67.1308L165.44 106.066C166.143 106.659 167.054 106.95 167.971 106.873C168.889 106.796 169.738 106.359 170.333 105.657C170.927 104.955 171.218 104.046 171.141 103.129C171.065 102.213 170.626 101.365 169.923 100.771L169.918 100.767L123.701 61.8321C129.07 54.1388 131.368 44.7211 130.144 35.4245C128.921 26.1279 124.264 17.6225 117.087 11.5752ZM114.107 58.0829C110.507 62.3431 105.722 65.4417 100.357 66.9868C94.9931 68.5319 89.2903 68.4541 83.9703 66.7633C78.6502 65.0725 73.9518 61.8446 70.4691 57.4879C66.9865 53.1311 64.8761 47.8411 64.4048 42.2868C63.9335 36.7325 65.1224 31.1634 67.8213 26.2838C70.5202 21.4042 74.6077 17.4331 79.5671 14.8729C84.5264 12.3126 90.1348 11.2781 95.6831 11.9002C101.231 12.5222 106.47 14.773 110.737 18.3677C113.57 20.7545 115.905 23.6751 117.608 26.9627C119.31 30.2503 120.348 33.8405 120.661 37.5284C120.974 41.2163 120.556 44.9297 119.432 48.4564C118.307 51.9831 116.498 55.2542 114.107 58.0829Z" fill="#2A2F39"/>
<path opacity="0.3" d="M74.3283 61.4475C68.9129 56.8849 65.4141 50.4559 64.5267 43.437C63.6393 36.4181 65.4282 29.3227 69.5381 23.5597C68.9984 24.1024 68.4766 24.6707 67.9728 25.2648C65.5821 28.0934 63.7729 31.3645 62.6485 34.8912C61.524 38.418 61.1064 42.1313 61.4193 45.8192C61.7322 49.5071 62.7697 53.0974 64.4724 56.385C66.175 59.6726 68.5096 62.5932 71.3428 64.98C74.176 67.3668 77.4524 69.1731 80.9848 70.2957C84.5172 71.4184 88.2365 71.8354 91.9303 71.523C95.6241 71.2105 99.2201 70.1748 102.513 68.4748C105.806 66.7749 108.731 64.444 111.122 61.6154C111.624 61.0206 112.098 60.4114 112.542 59.788C107.543 64.8023 100.839 67.7565 93.7595 68.064C86.6803 68.3714 79.7441 66.0096 74.3283 61.4475Z" fill="#08204F"/>
<path d="M152.081 90.4188C152.479 90.5161 152.894 90.525 153.296 90.4448C153.699 90.3646 154.078 90.1973 154.409 89.9547C154.74 89.7121 155.013 89.4001 155.209 89.0407C155.406 88.6813 155.522 88.2832 155.547 87.8744L165.156 85.2116L161.25 81.8116L152.724 84.8615C152.034 84.8635 151.368 85.1185 150.853 85.5779C150.338 86.0374 150.01 86.6696 149.93 87.3546C149.851 88.0396 150.026 88.7299 150.422 89.2947C150.818 89.8594 151.409 90.2594 152.081 90.4188Z" fill="#FACECE"/>
<path d="M156.074 89.0094L155.49 83.4633L163.516 79.042L158.283 72.7176L159.137 65.6131L161.263 64.7033L161.329 64.7882C162.332 66.0754 171.126 77.4039 171.126 78.8043C171.126 80.2426 169.443 84.4665 167.142 85.6155C164.922 86.7238 156.585 88.8779 156.231 88.9691L156.074 89.0094Z" fill="#202B40"/>
<path d="M197.721 155.63H91.4003C91.3263 155.63 91.2553 155.6 91.2029 155.548C91.1506 155.496 91.1212 155.425 91.1212 155.351C91.1212 155.277 91.1506 155.206 91.2029 155.154C91.2553 155.102 91.3263 155.072 91.4003 155.072H197.721C197.795 155.072 197.866 155.102 197.918 155.154C197.971 155.206 198 155.277 198 155.351C198 155.425 197.971 155.496 197.918 155.548C197.866 155.6 197.795 155.63 197.721 155.63Z" fill="#CCCCCC"/>
</g>
<defs>
<clipPath id="clip0_1_35">
<rect width="198" height="155.63" fill="white"/>
</clipPath>
</defs>
</svg>
