<svg width="185" height="140" viewBox="0 0 185 140" fill="none" xmlns="http://www.w3.org/2000/svg">
<path d="M26.1676 46.9901V94H13.4052V58.7426H13.1297L2.8463 64.8943V54.06L14.4151 46.9901H26.1676ZM56.2948 95.2854C52.0253 95.2701 48.3374 94.2831 45.2309 92.3244C42.1245 90.3656 39.7296 87.5423 38.0463 83.8543C36.363 80.1664 35.529 75.7439 35.5443 70.5869C35.5596 65.4146 36.4013 61.0227 38.0693 57.4113C39.7526 53.7998 42.1398 51.053 45.2309 49.1708C48.3374 47.2885 52.0253 46.3474 56.2948 46.3474C60.5642 46.3474 64.2522 47.2962 67.3586 49.1937C70.4651 51.076 72.8599 53.8228 74.5432 57.4342C76.2265 61.0457 77.0605 65.4299 77.0452 70.5869C77.0452 75.7745 76.2036 80.2123 74.5203 83.9002C72.837 87.5882 70.4421 90.4115 67.3357 92.3703C64.2445 94.3137 60.5642 95.2854 56.2948 95.2854ZM56.2948 84.9102C58.4984 84.9102 60.3041 83.7625 61.7119 81.4671C63.1351 79.1564 63.839 75.5297 63.8237 70.5869C63.8237 67.358 63.5023 64.7183 62.8596 62.6677C62.2169 60.6172 61.3294 59.1022 60.197 58.1228C59.0646 57.1282 57.7638 56.6308 56.2948 56.6308C54.0912 56.6308 52.2931 57.7479 50.9006 59.9821C49.508 62.2163 48.7964 65.7512 48.7658 70.5869C48.7505 73.877 49.0642 76.5855 49.707 78.7126C50.3497 80.8244 51.2372 82.3853 52.3696 83.3952C53.5173 84.4052 54.8257 84.9102 56.2948 84.9102ZM103.511 95.2854C99.2418 95.2701 95.5538 94.2831 92.4474 92.3244C89.3409 90.3656 86.9461 87.5423 85.2628 83.8543C83.5795 80.1664 82.7455 75.7439 82.7608 70.5869C82.7761 65.4146 83.6177 61.0227 85.2857 57.4113C86.969 53.7998 89.3562 51.053 92.4474 49.1708C95.5538 47.2885 99.2418 46.3474 103.511 46.3474C107.781 46.3474 111.469 47.2962 114.575 49.1937C117.682 51.076 120.076 53.8228 121.76 57.4342C123.443 61.0457 124.277 65.4299 124.262 70.5869C124.262 75.7745 123.42 80.2123 121.737 83.9002C120.053 87.5882 117.659 90.4115 114.552 92.3703C111.461 94.3137 107.781 95.2854 103.511 95.2854ZM103.511 84.9102C105.715 84.9102 107.521 83.7625 108.928 81.4671C110.352 79.1564 111.055 75.5297 111.04 70.5869C111.04 67.358 110.719 64.7183 110.076 62.6677C109.433 60.6172 108.546 59.1022 107.413 58.1228C106.281 57.1282 104.98 56.6308 103.511 56.6308C101.308 56.6308 99.5096 57.7479 98.117 59.9821C96.7245 62.2163 96.0129 65.7512 95.9823 70.5869C95.967 73.877 96.2807 76.5855 96.9234 78.7126C97.5661 80.8244 98.4537 82.3853 99.5861 83.3952C100.734 84.4052 102.042 84.9102 103.511 84.9102ZM157.155 85.1857V82.7066C157.155 80.7173 157.583 78.8809 158.44 77.1976C159.312 75.5144 160.575 74.1601 162.228 73.1348C163.88 72.1095 165.893 71.5969 168.265 71.5969C170.698 71.5969 172.741 72.1019 174.393 73.1118C176.061 74.1218 177.324 75.4684 178.181 77.1517C179.038 78.835 179.466 80.6867 179.466 82.7066V85.1857C179.466 87.175 179.03 89.0113 178.158 90.6946C177.301 92.3779 176.038 93.7322 174.37 94.7575C172.702 95.7828 170.667 96.2954 168.265 96.2954C165.862 96.2954 163.834 95.7828 162.182 94.7575C160.529 93.7322 159.274 92.3779 158.417 90.6946C157.576 89.0113 157.155 87.175 157.155 85.1857ZM165.143 82.7066V85.1857C165.143 86.0579 165.357 86.9225 165.786 87.7795C166.229 88.6211 167.056 89.0419 168.265 89.0419C169.535 89.0419 170.369 88.6288 170.767 87.8024C171.18 86.9761 171.386 86.1038 171.386 85.1857V82.7066C171.386 81.7885 171.195 80.9009 170.812 80.0439C170.43 79.187 169.581 78.7585 168.265 78.7585C167.056 78.7585 166.229 79.187 165.786 80.0439C165.357 80.9009 165.143 81.7885 165.143 82.7066ZM132.548 58.2835V55.8045C132.548 53.7845 132.984 51.9329 133.856 50.2496C134.744 48.5663 136.014 47.2197 137.667 46.2097C139.32 45.1997 141.317 44.6947 143.658 44.6947C146.091 44.6947 148.134 45.1997 149.787 46.2097C151.455 47.2197 152.717 48.5663 153.574 50.2496C154.431 51.9329 154.859 53.7845 154.859 55.8045V58.2835C154.859 60.3035 154.423 62.1475 153.551 63.8154C152.694 65.4834 151.432 66.8148 149.764 67.8094C148.096 68.8041 146.06 69.3015 143.658 69.3015C141.255 69.3015 139.228 68.7965 137.575 67.7865C135.922 66.7765 134.667 65.4375 133.811 63.7695C132.969 62.1015 132.548 60.2729 132.548 58.2835ZM140.628 55.8045V58.2835C140.628 59.2017 140.842 60.0739 141.271 60.9003C141.699 61.7266 142.495 62.1398 143.658 62.1398C144.928 62.1398 145.762 61.7266 146.16 60.9003C146.573 60.0739 146.78 59.2017 146.78 58.2835V55.8045C146.78 54.8863 146.588 53.9988 146.206 53.1418C145.823 52.2849 144.974 51.8564 143.658 51.8564C142.449 51.8564 141.638 52.3002 141.225 53.1877C140.827 54.06 140.628 54.9322 140.628 55.8045ZM136.45 94L168.77 46.9901H175.288L142.969 94H136.45Z" fill="#858E96"/>
<rect x="28.7825" y="123.172" width="151.831" height="18.8646" transform="rotate(-51.2372 28.7825 123.172)" fill="#858E96" stroke="white" stroke-width="6"/>
</svg>
